<svg height="1597" xmlns:xlink="http://www.w3.org/1999/xlink" xmlns="http://www.w3.org/2000/svg" xmlns:ev="http://www.w3.org/2001/xml-events" width="1132" viewBox="0 0 1132 1597"><style type="text/css"><![CDATA[
.st2 {fill:#000000;font-family:宋体;font-size:10pt}
.st3 {fill:#1f6391;font-family:宋体;font-size:10pt}
.st1 {fill:#ffffff;font-family:宋体;font-size:10pt}
]]></style><defs><linearGradient x2="63" gradientUnits="userSpaceOnUse" y2="61" id="lg1" x1="30" y1="-13"><stop offset="0" stop-color="#373737"/><stop offset="0.52" stop-color="#494949"/><stop offset="0.03" stop-color="#474747"/></linearGradient><linearGradient x2="0%" y2="0%" id="lg2" x1="100%" y1="0%"><stop offset="0.14" stop-color="#343434"/><stop offset="0.66" stop-color="#383838"/><stop offset="1" stop-color="#353535"/></linearGradient><linearGradient x2="43" gradientUnits="userSpaceOnUse" y2="42" id="lg3" x1="18" y1="-9"><stop offset="0.45" stop-color="#4a4a4a"/><stop offset="0.49" stop-color="#565656"/><stop offset="0.51" stop-color="#414141"/></linearGradient><linearGradient x2="0%" y2="0%" id="lg4" x1="100%" y1="0%"><stop offset="0" stop-color="#414141"/><stop offset="0.25" stop-color="#4c4c4c"/><stop offset="1" stop-color="#353535"/></linearGradient><linearGradient x2="-7" gradientUnits="userSpaceOnUse" y2="41" id="lg5" x1="28" y1="47"><stop stop-opacity="0.2" offset="0" stop-color="#8f8f8f"/><stop stop-opacity="0" offset="0.52" stop-color="#686868"/></linearGradient><clipPath id="clip1"><path d="M0,0L0,1.8L19.4,10.8L19.4,8.9L0,0z"/></clipPath><linearGradient x2="100%" y2="0%" id="lg6" x1="0%" y1="0%"><stop offset="0" stop-color="#333333"/><stop offset="1" stop-color="#000000"/></linearGradient><linearGradient x2="0%" y2="100%" id="lg7" x1="0%" y1="0%"><stop offset="0" stop-color="#333333"/><stop offset="1" stop-color="#000000"/></linearGradient><clipPath id="clip2"><path d="M0,0L0,2L19.4,10.9L19.4,8.7L0,0z"/></clipPath><linearGradient x2="100%" y2="0%" id="lg8" x1="0%" y1="0%"><stop offset="0" stop-color="#333333"/><stop offset="1" stop-color="#000000"/></linearGradient><linearGradient x2="0%" y2="100%" id="lg9" x1="0%" y1="0%"><stop offset="0" stop-color="#333333"/><stop offset="1" stop-color="#000000"/></linearGradient><clipPath id="clip3"><path d="M0,0L0,2.1L19.5,11.1L19.5,9.1L0,0z"/></clipPath><linearGradient x2="100%" y2="0%" id="lg10" x1="0%" y1="0%"><stop offset="0" stop-color="#333333"/><stop offset="1" stop-color="#000000"/></linearGradient><linearGradient x2="0%" y2="100%" id="lg11" x1="0%" y1="0%"><stop offset="0" stop-color="#333333"/><stop offset="1" stop-color="#000000"/></linearGradient><clipPath id="clip4"><path d="M0,0L0,2.1L19.2,10.9L19.2,8.9L0,0z"/></clipPath><linearGradient x2="100%" y2="0%" id="lg12" x1="0%" y1="0%"><stop offset="0" stop-color="#333333"/><stop offset="1" stop-color="#000000"/></linearGradient><linearGradient x2="0%" y2="100%" id="lg13" x1="0%" y1="0%"><stop offset="0" stop-color="#333333"/><stop offset="1" stop-color="#000000"/></linearGradient><clipPath id="clip5"><path d="M0,0L0,1.8L17.4,9.4L17.4,7.7L0,0z"/></clipPath><linearGradient x2="100%" y2="0%" id="lg14" x1="0%" y1="0%"><stop offset="0" stop-color="#006fbd"/><stop offset="1" stop-color="#004371"/></linearGradient><linearGradient x2="0%" y2="100%" id="lg15" x1="0%" y1="0%"><stop offset="0" stop-color="#006fbd"/><stop offset="1" stop-color="#004371"/></linearGradient><linearGradient x2="100%" y2="0%" id="lg16" x1="0%" y1="0%"><stop offset="0" stop-color="#00538e"/><stop offset="1" stop-color="#00406e"/></linearGradient><clipPath id="clip6"><path d="M0,0L0,2.2L17.5,10.1L17.5,8.1L0,0z"/></clipPath><linearGradient x2="100%" y2="0%" id="lg17" x1="0%" y1="0%"><stop offset="0" stop-color="#006fbd"/><stop offset="1" stop-color="#004371"/></linearGradient><linearGradient x2="0%" y2="100%" id="lg18" x1="0%" y1="0%"><stop offset="0" stop-color="#006fbd"/><stop offset="1" stop-color="#004371"/></linearGradient><clipPath id="clip7"><path d="M0,0L17.6,8L17.6,9.8L0,2.2L0,0z"/></clipPath><linearGradient x2="100%" y2="0%" id="lg19" x1="0%" y1="0%"><stop offset="0" stop-color="#006fbd"/><stop offset="1" stop-color="#004371"/></linearGradient><linearGradient x2="0%" y2="100%" id="lg20" x1="0%" y1="0%"><stop offset="0" stop-color="#006fbd"/><stop offset="1" stop-color="#004371"/></linearGradient><clipPath id="clip8"><path d="M0,0L17.6,8.3L17.6,10.2L0,2.2L0,0z"/></clipPath><linearGradient x2="0%" y2="100%" id="lg21" x1="0%" y1="0%"><stop offset="0.63" stop-color="#006fbd"/><stop offset="1" stop-color="#004371"/></linearGradient><linearGradient x2="0%" y2="0%" id="lg22" x1="100%" y1="0%"><stop offset="0.63" stop-color="#006fbd"/><stop offset="1" stop-color="#004371"/></linearGradient><linearGradient x2="0%" y2="100%" id="lg23" x1="0%" y1="0%"><stop offset="0" stop-color="#40c2f2"/><stop stop-opacity="0" offset="0.75" stop-color="#45c4f3"/></linearGradient><linearGradient x2="0%" y2="100%" id="lg24" x1="0%" y1="0%"><stop stop-opacity="0.78" offset="0.29" stop-color="#40c2f2"/><stop stop-opacity="0" offset="0.72" stop-color="#45c4f3"/></linearGradient><linearGradient x2="-1" gradientUnits="userSpaceOnUse" y2="3" id="lg25" x1="16" y1="6"><stop offset="0.07" stop-color="#40c2f2"/><stop stop-opacity="0" offset="0.41" stop-color="#45c4f3"/></linearGradient><linearGradient x2="-1" gradientUnits="userSpaceOnUse" y2="3" id="lg26" x1="16" y1="6"><stop stop-opacity="0.9" offset="0" stop-color="#40c2f2"/><stop stop-opacity="0" offset="0.41" stop-color="#45c4f3"/></linearGradient><linearGradient x2="0%" y2="100%" id="lg27" x1="0%" y1="0%"><stop offset="0.36" stop-color="#d3a717"/><stop offset="1" stop-color="#a8830d"/></linearGradient><linearGradient x2="0%" y2="100%" id="lg28" x1="0%" y1="0%"><stop offset="1" stop-color="#d6b14f"/><stop offset="1" stop-color="#a98013"/></linearGradient><linearGradient x2="100%" y2="0%" id="lg29" x1="0%" y1="0%"><stop stop-opacity="0.12" offset="0" stop-color="#ffffff"/><stop stop-opacity="0.05" offset="0.55" stop-color="#ffffff"/><stop stop-opacity="0.02" offset="1" stop-color="#ffffff"/></linearGradient><radialGradient cy="0" gradientUnits="userSpaceOnUse" r="40.7" fy="0" id="rg1" cx="0" fx="0"><stop offset="0" stop-color="#54a0f9"/><stop offset="1" stop-color="#4195f8"/></radialGradient><linearGradient x2="0%" y2="100%" id="lg30" x1="0%" y1="0%"><stop offset="0" stop-color="#a1d979"/><stop offset="1" stop-color="#7ac941"/></linearGradient></defs><g transform="translate(5,5)" id="page1"><rect stroke="#808080" height="1587" width="1123" fill="#ffffff" x="0" y="0"/><g transform="translate(217,76)"><path stroke="#3498db" fill="#3498db" id="shape1" d="M406,56L406,0L0,0L0,56L406,56z"/><text class="st1"><tspan x="186" y="32.5">web层</tspan></text></g><g transform="translate(704,85)" id="shape2"><text class="st2"><tspan x="6" y="12.5">web负责对外提供HTTP1.1协议的https服务，并进行</tspan><tspan x="26" y="27.5">协议解析，打包成调度层识别的消息，并通过</tspan><tspan x="8" y="42.5">channel进行关联，同步非阻塞等待结果并返回给用</tspan><tspan x="150" y="57.5">户</tspan></text></g><g transform="translate(214.5,256)"><path stroke="#3498db" fill="#3498db" id="shape3" d="M411,56L411,0L0,0L0,56L411,56z"/><text class="st1"><tspan x="168" y="32.5">scheduler层</tspan></text></g><g transform="translate(420,132)" id="shape4"><path stroke="#236ea1" fill="none" d="M0,0L0,119.6"/><path stroke="#236ea1" stroke-linecap="round" fill="#236ea1" stroke-width="1" d="M0,124L3,118.8C2.1,119.3,1.1,119.6,0,119.6C-1.1,119.6,-2.1,119.3,-3,118.8L0,124"/></g><g transform="translate(694,265)" id="shape5"><text class="st2"><tspan x="6" y="-13">通过channel传递过来的消息进行解析{metod,path,pid}</tspan><tspan x="9" y="2">并从redis中根据path匹配后端服务节点，如果匹配上就</tspan><tspan x="8" y="17">进行访问，同时需要处理失败情况并能根据返回的失败结</tspan><tspan x="21" y="32">果判断是否需要更换节点尝试，调度拿到结果后写回</tspan><tspan x="41" y="47">channel中,如果是更换了节点就更新redis的</tspan><tspan x="12" y="62">path:serverhost的存储信息，其中serverhost是一个</tspan><tspan x="7" y="77">key,对应的key-value由server本身通过报活维持，否则</tspan><tspan x="105" y="92">将过期，过期时间为5s</tspan></text></g><g transform="translate(420,312)" id="shape6"><path stroke="#236ea1" fill="none" d="M0,0L0,141.6"/><path stroke="#236ea1" stroke-linecap="round" fill="#236ea1" stroke-width="1" d="M0,146L3,140.8C2.1,141.3,1.1,141.6,0,141.6C-1.1,141.6,-2.1,141.3,-3,140.8L0,146"/></g><g transform="translate(214.5,458)"><path stroke="#3498db" fill="#3498db" id="shape7" d="M411,56L411,0L0,0L0,56L411,56z"/><text class="st1"><tspan x="182" y="32.5">proxy层</tspan></text></g><g transform="translate(657,434)" id="shape8"><text class="st2"><tspan x="11" y="56.5">负责进行指定server节点的调度，并负责维持后端http长连接</tspan></text></g><g transform="translate(420,514)" id="shape9"><path stroke="#236ea1" fill="none" stroke-dasharray="2.5,2.5" d="M0,0L0,227.6"/><path stroke="#236ea1" stroke-linecap="round" fill="#236ea1" stroke-width="1" d="M0,232L3,226.8C2.1,227.3,1.1,227.6,0,227.6C-1.1,227.6,-2.1,227.3,-3,226.8L0,232"/></g><g transform="translate(214.5,746)"><path stroke="#3498db" fill="#3498db" id="shape10" d="M411,56L411,0L0,0L0,56L411,56z"/><text class="st1"><tspan x="138" y="32.5">uploadserver服务集群</tspan></text></g><g transform="translate(214.5,1005)"><path stroke="#3498db" fill="#3498db" id="shape11" d="M102.5,58L102.5,0L0,0L0,58L102.5,58z"/><text class="st1"><tspan x="9.3" y="26">uploadserver</tspan><tspan x="38.3" y="41">实例</tspan></text></g><g transform="translate(652,756)" id="shape12"><text class="st2"><tspan x="70" y="20">负责负载均衡调度,可以用nginx+BLB实现</tspan><tspan x="5" y="35">nginx负责反向代理，BLB负责四层负载均衡，或者脱离百度，使</tspan><tspan x="172" y="50">用LVS</tspan></text></g><g transform="translate(549,1005)"><path stroke="#3498db" fill="#3498db" id="shape13" d="M103,58L103,0L0,0L0,58L103,58z"/><text class="st1"><tspan x="10" y="26">uploadserver</tspan><tspan x="39" y="41">实例</tspan></text></g><g transform="translate(373,1005)"><path stroke="#3498db" fill="#3498db" id="shape14" d="M104,58L104,0L0,0L0,58L104,58z"/><text class="st1"><tspan x="10" y="26">uploadserver</tspan><tspan x="39" y="41">实例</tspan></text></g><g transform="matrix(-0.61,0.8,-0.8,-0.61,420,802)" id="shape15"><path stroke="#236ea1" fill="none" d="M0,0L250.6,0"/><path stroke="#236ea1" stroke-linecap="round" fill="#236ea1" stroke-width="1" d="M255,0L249.8,-3C250.3,-2.1,250.6,-1.1,250.6,0C250.6,1.1,250.3,2.1,249.8,3L255,0"/></g><g transform="matrix(0.02,1,-1,0.02,420,802)" id="shape16"><path stroke="#236ea1" fill="none" d="M0,0L198.7,0"/><path stroke="#236ea1" stroke-linecap="round" fill="#236ea1" stroke-width="1" d="M203.1,0L197.9,-3C198.4,-2.1,198.7,-1.1,198.7,0C198.7,1.1,198.4,2.1,197.9,3L203.1,0"/></g><g transform="matrix(0.66,0.75,-0.75,0.66,420,802)" id="shape17"><path stroke="#236ea1" fill="none" d="M0,0L267.2,0"/><path stroke="#236ea1" stroke-linecap="round" fill="#236ea1" stroke-width="1" d="M271.6,0L266.4,-3C267,-2.1,267.2,-1.1,267.2,0C267.2,1.1,267,2.1,266.4,3L271.6,0"/></g><g transform="translate(699,1020)" id="shape18"><text class="st2"><tspan x="9" y="-4.5">uploadserver实例负责实际的上传操作，先通过tus</tspan><tspan x="5" y="10.5">协议将文件接收到本地，然后确认文件完整后包括md5</tspan><tspan x="10" y="25.5">校验，传输过程的CRC32校验，无误后进行bos上传/</tspan><tspan x="10" y="40.5">aws3上传，然后拿到访问地址并同步返回给client,</tspan><tspan x="27" y="55.5">这里的client是它的直接访问者，就是上图的</tspan><tspan x="91" y="70.5">manager模块的proxy层</tspan></text></g><g transform="translate(373,1191)"><g><path stroke="#3a3a3a" transform="translate(0.24,0)" fill="url(#lg1)" id="shape19" d="M0,25.2L.6,23.4L55.9,0L93.3,9.7L36.5,47.1L0,25.2z"/><path stroke="#414141" transform="translate(20.01,9.67)" fill="#414141" id="shape20" d="M14.7,114.3L73.7,82L73.7,1.1L15.5,27.7L0,74.7L14.7,114.3z"/><path stroke="#424242" transform="translate(-0.01,23.43)" fill="url(#lg2)" id="shape21" d="M1.2,0L34.3,13.1C35.1,13.3,35.4,14,35.6,14.4L35.6,99.4C35.6,100.1,35,100.5,34.3,100.5L1.2,84.2C.3,83.7,.1,83.4,0,83L0,1.1C0,.5,.5,0,1.2,0z"/><path transform="translate(31.91,8.87)" fill="url(#lg3)" id="shape22" d="M0,27C2.5,28.1,2.8,28,4.6,29.6C5.7,30.5,6.1,33.2,6.1,33.2L61.7,2.4C61.7,2.4,62,1.2,61.6,.8C61.2,.5,57.7,0,57.7,0L0,27z"/><path transform="translate(31.58,35.65)" fill="url(#lg4)" id="shape23" d="M-0,0C1.6,0,6.2,2.2,6.4,6C6.5,7.3,6.4,86.1,6.4,86.1C6.4,86.1,3.3,88.7,2.9,88.3C2.6,87.9,.1,87,.1,87L-0,0z"/><path transform="translate(0.14,24.06)" fill="url(#lg5)" id="shape24" d="M21.2,7.2L10.6,88.1L0,83.6L0,.3C0,.3,-0.3,-0.3,1.2,.2L21.2,7.2z"/><g transform="translate(0.08,34.09)"><g transform="translate(0.13,-0)" id="shape25"><g clip-path="url(#clip1)"><path stroke="url(#lg6)" fill="url(#lg6)" stroke-width="2" d="M19.4,0L19.4,10.8L0,0z"/></g><g clip-path="url(#clip1)"><path stroke="url(#lg7)" fill="url(#lg7)" stroke-width="2" d="M19.4,10.8L0,10.8L0,0z"/></g><path stroke="#292929" fill="none" d="M0,0L0,1.8L19.4,10.8L19.4,8.9L0,0z"/></g><g transform="translate(0.13,12.15)" id="shape26"><g clip-path="url(#clip2)"><path stroke="url(#lg8)" fill="url(#lg8)" stroke-width="2" d="M19.4,0L19.4,10.9L0,0z"/></g><g clip-path="url(#clip2)"><path stroke="url(#lg9)" fill="url(#lg9)" stroke-width="2" d="M19.4,10.9L0,10.9L0,0z"/></g><path stroke="#292929" fill="none" d="M0,0L0,2L19.4,10.9L19.4,8.7L0,0z"/></g><g transform="translate(-0,24.4)" id="shape27"><g clip-path="url(#clip3)"><path stroke="url(#lg10)" fill="url(#lg10)" stroke-width="2" d="M19.5,0L19.5,11.1L0,0z"/></g><g clip-path="url(#clip3)"><path stroke="url(#lg11)" fill="url(#lg11)" stroke-width="2" d="M19.5,11.1L0,11.1L0,0z"/></g><path stroke="#292929" fill="none" d="M0,0L0,2.1L19.5,11.1L19.5,9.1L0,0z"/></g><g transform="translate(0.17,37.08)" id="shape28"><g clip-path="url(#clip4)"><path stroke="url(#lg12)" fill="url(#lg12)" stroke-width="2" d="M19.2,0L19.2,10.9L0,0z"/></g><g clip-path="url(#clip4)"><path stroke="url(#lg13)" fill="url(#lg13)" stroke-width="2" d="M19.2,10.9L0,10.9L0,0z"/></g><path stroke="#292929" fill="none" d="M0,0L0,2.1L19.2,10.9L19.2,8.9L0,0z"/></g><g transform="translate(17.93,8.35)" id="shape29"><g clip-path="url(#clip5)"><path stroke="url(#lg14)" fill="url(#lg14)" stroke-width="2" d="M17.4,0L17.4,9.4L0,0z"/></g><g clip-path="url(#clip5)"><path stroke="url(#lg15)" fill="url(#lg15)" stroke-width="2" d="M17.4,9.4L0,9.4L0,0z"/></g><path stroke="url(#lg16)" fill="none" d="M0,0L0,1.8L17.4,9.4L17.4,7.7L0,0z"/></g><g transform="translate(17.93,20.21)" id="shape30"><g clip-path="url(#clip6)"><path stroke="url(#lg17)" fill="url(#lg17)" stroke-width="2" d="M17.5,0L17.5,10.1L0,0z"/></g><g clip-path="url(#clip6)"><path stroke="url(#lg18)" fill="url(#lg18)" stroke-width="2" d="M17.5,10.1L0,10.1L0,0z"/></g><path stroke="url(#lg16)" fill="none" d="M0,0L0,2.2L17.5,10.1L17.5,8.1L0,0z"/></g><g transform="translate(17.83,32.78)" id="shape31"><g clip-path="url(#clip7)"><path stroke="url(#lg19)" fill="url(#lg19)" stroke-width="2" d="M17.6,0L17.6,9.8L0,0z"/></g><g clip-path="url(#clip7)"><path stroke="url(#lg20)" fill="url(#lg20)" stroke-width="2" d="M17.6,9.8L0,9.8L0,0z"/></g><path stroke="url(#lg16)" fill="none" d="M0,0L17.6,8L17.6,9.8L0,2.2L0,0z"/></g><g transform="translate(17.83,45.15)" id="shape32"><g clip-path="url(#clip8)"><path stroke="url(#lg21)" fill="url(#lg21)" stroke-width="2" d="M17.6,10.2L0,10.2L17.6,0z"/></g><g clip-path="url(#clip8)"><path stroke="url(#lg22)" fill="url(#lg22)" stroke-width="2" d="M0,0L0,10.2L17.6,0z"/></g><path stroke="url(#lg16)" fill="none" d="M0,0L17.6,8.3L17.6,10.2L0,2.2L0,0z"/></g><path transform="translate(18.87,8.77)" fill="url(#lg23)" id="shape33" d="M0,0L13.1,5.8L14.6,8.5L0,2L0,0z"/><path transform="translate(18.64,20.42)" fill="url(#lg23)" id="shape34" d="M0,0L13,6L14.6,9.1L.1,2.4L0,0z"/><path transform="translate(18.81,33.16)" fill="url(#lg23)" id="shape35" d="M0,0L13.1,5.9L14.6,8.8L0,2.3L0,0z"/><path transform="translate(18.81,45.71)" fill="url(#lg24)" id="shape36" d="M0,0L13.1,5.8L14.6,8.5L0,2L0,0z"/><path transform="translate(18.81,45.71)" fill="url(#lg25)" id="shape37" d="M0,0L15.2,7.1L15.2,8.9L2.1,3.1L0,0z"/><path transform="translate(19.05,33.11)" fill="url(#lg26)" id="shape38" d="M0,0L15.2,7.1L15.2,8.9L2.1,3.1L0,0z"/><path transform="translate(19.11,20.79)" fill="url(#lg26)" id="shape39" d="M0,0L15.2,7.1L15.2,8.9L2.1,3.1L0,0z"/><path transform="translate(19.11,8.59)" fill="url(#lg26)" id="shape40" d="M0,0L15.2,7.1L15.2,8.9L2.1,3.1L0,0z"/></g></g><g transform="translate(55.57,78.08)"><path transform="matrix(-1,0,0,1,52.4,-0)" fill="#e7d299" id="shape41" d="M3.9,44.5C3.7,45.2,3.4,44.4,3.4,43.6C3.4,42.7,0,4.9,0,4.9C0,4.9,.2,3.4,2,3.1C3.7,2.8,14.3,1,15,1.1C16.1,1.2,15.8,4.2,16.5,4.2C17.1,4.2,42.5,0,42.5,0C42.5,0,43,-0.1,42.9,1C42.8,1.9,3.9,44.4,3.9,44.5z"/><path transform="matrix(-1,0,0,1,51.7,0.4)" fill="url(#lg27)" id="shape42" d="M3.1,44.8L0,4.8C0,4.8,-0.3,3.4,1.9,3.1C4.1,2.7,13.7,1,13.7,1C13.7,1,14.7,.4,15.1,2.9C15.1,4.7,16.1,4.4,16.9,4.2C17.8,4,41.9,0,41.9,0C41.9,0,42.3,0,42.3,1.3C42.3,2.5,40.9,30.4,40.9,30.4L3.1,44.8z"/><path fill-opacity="0.55" transform="matrix(-1,0,0,1,46.8,4.2)" fill="#ffffff" id="shape43" d="M0,39.9L.4,6.8L37.9,0L0,39.9z"/><path stroke="#bcbcbc" transform="matrix(-1,0,0,1,49.5,2.5)" fill="#fcfcfc" id="shape44" d="M1.4,41.5L0,8.3L40.2,0L38.2,28L1.4,41.5z"/><path stroke="#a0a0a0" transform="matrix(-1,0,0,1,48,3.4)" fill="#fcfcfc" id="shape45" d="M3.1,8.4L0,40.4C0,40.4,36.9,27.8,36.8,27.7C36.7,27.6,42.2,0,42.2,0L3.1,8.4z"/><path stroke="#a0a0a0" transform="matrix(-1,0,0,1,46.8,5)" fill="#fcfcfc" id="shape46" d="M5.9,7.9L0,39.1L36.2,25.7L43.2,0L5.9,7.9z"/><path transform="matrix(-1,0,0,1,48.4,6.1)" fill="#e7d299" id="shape47" d="M.4,39.1L5.2,15.1C5.2,15.1,5.6,13.5,6.8,13.1C8.1,12.7,19,10.3,19,10.3C19,10.3,19.9,10,20,8C20.1,6,21.7,5.6,21.7,5.6L47.4,0L15.8,14.1L.4,39.1z"/><path transform="matrix(-1,0,0,1,48.8,6.4)" fill="url(#lg28)" id="shape48" d="M.1,38C.1,38,.4,38.9,.6,38.8C.9,38.6,5.9,16.1,6.3,15.1C6.7,14,7,13.5,8.3,13.1C9.6,12.8,20,10.5,20,10.5C20,10.5,20.7,10.5,20.9,8.9C21.1,7.3,21,6.1,22.7,5.7C24.3,5.3,48.2,-0.3,48.4,0C48.6,.4,48.9,.1,48.6,1.2C48.4,2.3,48.6,22.3,48.6,22.3C48.6,22.3,48.6,23,47.8,23.1C46.9,23.3,.8,39.4,.8,39.4C.8,39.4,-0.4,39.3,.1,38z"/><path stroke="#000000" transform="matrix(-1,0,0,1,7.9,6.1)" fill="none" id="shape49" d="M224.2,342.7"/><path transform="matrix(-1,0,0,1,40.6,6.5)" fill="url(#lg29)" id="shape50" d="M24.1,3.4C24.1,3.4,40.1,-0.2,40.3,0C40.5,.5,40.8,.6,40.5,1.7C40.3,2.8,40.5,22.2,40.5,22.2C40.5,22.2,40.5,23,39.6,23.1C38.8,23.2,0,36.6,0,36.6L24.1,3.4z"/></g><g transform="translate(46.86,94.41)"><path stroke="#4195f8" fill="url(#rg1)" id="shape51" d="M0,14.5C0,6.5,6.4,0,14.3,0C22.3,0,28.7,6.5,28.7,14.5C28.7,22.5,22.3,29,14.3,29C6.4,29,0,22.5,0,14.5z"/><path transform="translate(1.37,-0)" fill="url(#lg30)" id="shape52" d="M3.4,3.7C2,5.2,2,6,2,6C2,6,1.3,7.2,1.7,7.5C2.2,7.8,2.4,7.3,2.9,7.4C3.4,7.4,3.7,7.9,4.3,7.9C4.9,7.8,5.4,7.6,5.9,7.5C6.5,7.5,7,7.6,7.2,7.3C7.5,7,7.3,6.8,7.1,6.8C7,6.7,6.2,7.2,6,7.1C5.7,7.1,5.5,7,5.5,7C5.5,7,4.9,6.8,5,6.6C5.1,6.4,5.5,6.4,5.5,6.4C6.5,6.3,6.6,5.7,6.8,5.6C7,5.5,7.4,5.6,7.7,6C7.9,6.5,7.7,6.5,8.1,6.7C8.6,6.9,8.8,6.9,9,7C9.1,7,9.1,7.1,9.1,7.2C9.1,7.3,8.6,7.6,8.5,7.9C8.5,8.1,9,8.7,9,8.7C9,8.7,9.7,9.3,10.2,9C10.7,8.8,10.9,9.5,11,9.2C11,8.9,10.9,8.5,10.9,8.5C10.9,8.5,10.9,7.9,10.1,7.8C9.8,7.8,10.1,7.5,9.8,7.4C9.5,7.4,10,7.1,10,7.1C10,7.1,10.6,6.5,10.5,6.4C10.4,6.3,9.9,6.4,9.9,6.4C9.9,6.4,9.8,6.5,9.4,6.3C9.1,6.2,9.4,5.8,9.4,5.8C9.4,5.8,9.3,5.4,9.1,5.5C8.8,5.6,8.6,5.5,8.6,5.5C8.6,5.5,8.4,5.5,8.2,5.3C8,5.1,8.5,4.9,9,4.9C9.5,4.9,11,5.7,11.2,6C11.3,6.4,11,6.6,11,6.6C11,6.6,11.1,7.1,11.3,7.1C11.6,7.2,12.1,6.6,12.1,6.6C12.1,6.6,12.3,6.4,12.6,6.4C12.9,6.4,13.9,6.8,13.9,6.8C13.9,6.8,14.4,7,14.6,7.1C14.7,7.3,14.6,7.3,14.4,7.5C14.2,7.7,13.5,7.6,13.5,7.6C13.5,7.6,13.4,7.5,13.3,7.7C13.1,7.9,13.3,8.3,13.5,8.5C13.7,8.6,14.3,8.5,14.5,8.5C14.6,8.5,14.7,8.7,14.6,8.9C14.4,9.3,13.6,10,13.6,10.1C13.6,10.3,13.7,10.1,13.8,10.3C13.9,10.5,13.9,10.8,14,11C14.1,11.2,14.3,11.5,14.3,11.7C14.3,12,14.1,12.4,14.1,12.8C14.1,13.2,14.4,13.5,14.4,13.7C14.4,13.9,14.5,14.3,14.3,14.6C14.2,14.8,13.9,14.3,13.7,14.1C13.5,14,13.2,14,12.8,14C12.4,14,11.7,14.6,11.6,14.8C11.4,15,11.3,15.5,11.3,16C11.3,16.4,12,16.8,12,16.8C12,16.8,12.1,17,12.5,17C12.9,17.1,13.4,16.2,13.6,16.2C13.8,16.2,13.8,16.8,13.8,16.8L15.2,16.5C15.2,16.5,15.7,17.1,16,17.2C16.3,17.3,16.7,17.3,17,17.1C17.3,16.9,17.6,15.9,17.8,15.7C18.1,15.5,18.7,15.6,19.2,15.5C19.7,15.4,20.2,14.7,20.5,14.6C20.8,14.4,20.7,14.6,21,14.6C21.2,14.7,22.2,14.3,22.5,14.2C22.8,14.1,23.1,14.4,23.3,14.4C23.6,14.4,23.8,14.3,23.8,14.3C23.8,14.3,25.1,13.5,25.5,13.5C25.8,13.4,26,13.9,26,13.9C26,13.9,26,16.9,26,17.3C26,17.6,25.8,18.6,25.6,19.2C25.4,19.7,21.2,25.9,20.8,25.8C20.4,25.7,21.8,22.5,21.3,22C20.8,21.5,18.5,21.3,17.8,20.9C17,20.5,18.1,19,17.8,18.6C17.4,18.3,16,18.2,16,18.2C16,18.2,13.8,17.6,13.3,17.7C12.9,17.8,12.3,18.5,12,18.6C11.7,18.7,10.2,18.7,9.9,18.6C9.5,18.4,8.8,17.1,8.5,16.9C8.2,16.7,6.8,16.1,6.7,16.4C6.5,16.7,8,17.9,8,18.1C7.9,18.2,7.2,17.8,6.8,17.6C6.5,17.5,6,15.9,5.7,15.6C5.4,15.3,4.7,15.2,4.5,14.8C4.4,14.4,4.5,13.3,4.3,13.1C4.1,12.9,2.8,11.4,2.9,11.1C3.1,10.9,3.7,11.2,3.9,11.1C4.1,10.9,4.3,10.6,4.1,10.5C3.9,10.4,3.4,10.4,3.1,10.3C2.8,10.2,1.9,9.8,1.7,9.8C1.5,9.8,.6,10.1,.5,9.9C.4,9.7,1.4,9.4,1.7,9C1.9,8.5,1.9,8.2,1.8,8.1C1.7,8,0,8.2,0,8.2C0,8.2,.9,5.9,3.4,3.7zM4.8,24.2C5.2,24.2,5.3,24,5.4,23.9C5.5,23.8,5.9,23.8,6.1,24C6.3,24.3,6.6,24.4,6.8,24.5C7,24.6,7.1,25.1,7.1,25.1L7.5,26.1C7.5,26.1,9.2,26.2,9.2,26.6C9.2,26.7,9.1,26.8,8.8,26.9C8.6,27,8.5,27.2,8.2,27.2C7.9,27.2,7.7,27.1,7.4,26.9C7.1,26.8,5.4,26,5.2,25.9C4.9,25.7,4.4,25.4,4.4,25.4C4.4,25.4,4.1,25.2,3.8,25C3.5,24.8,3.8,24.7,3.8,24.7C3.8,24.7,4.1,24.6,4.2,24.5C4.2,24.3,4.3,24.2,4.8,24.2zM7.6,4.5C8,4.7,7.9,4.3,8.2,4.2C8.5,4.2,10.3,4.6,10.3,4.6C10.3,4.6,11.7,5.1,12.1,5.2C12.5,5.3,12.9,5.4,13,5.1C13.2,4.8,12.3,3.9,12.3,3.9C12.3,3.9,11.6,2.8,11.3,2.7C11.1,2.6,10.7,2.4,10.6,2.8C10.2,3,9.7,2.6,8.9,2.7C7.9,2.9,7.9,3.1,7.9,3.1C7.6,3.6,7.2,4.4,7.6,4.5zM12.4,2.3C12.6,2.3,12.9,2.5,12.9,2.5C12.9,2.5,13.4,2.4,13.5,2.6C13.6,2.9,13.2,2.9,13,3C12.9,3.2,12.9,3.6,12.8,3.6C12.6,3.7,12.6,3.5,12.6,3.5C12.3,3.1,12.2,2.4,12.4,2.3zM25.7,7.8C25.7,7.8,25.1,7.8,24.7,7.8C24.3,7.8,24.2,7.4,24.2,7.4C23.7,6.8,23.3,5.9,23.1,6.1C22.9,6.3,22.5,6.1,22.5,6.1C22,5.3,21.9,4.3,21.4,4.2C21,4,20.6,3.7,20.4,3.4C20.1,3.1,19.1,3.3,18.7,3.1C18.3,3,17.9,3.2,17.8,2.8C17.7,2.4,17.9,2.4,17.9,2C17.9,1.7,17.7,1.2,17.5,1.2C17.3,1.2,17.2,1.4,17.2,1.8C17.2,2.3,16.5,2.9,16.2,2.9C15.8,3,15.5,2.6,15.5,2.6C15.5,2.6,14.3,1.7,14.2,1.5C14.1,1.2,13.6,1.3,13.2,1C12.9,.7,12.7,1,12.3,1C11.8,1,11.7,1,11.5,.9C11.3,.8,11.4,1,10.8,1C10.2,.9,9.1,.5,9.1,.5C9.1,.5,14.2,-1.1,18.9,1.3C23.7,3.4,25.7,7.8,25.7,7.8zM13.8,15.4C13.7,15.3,13.9,15.1,13.9,15.1C13.9,15.1,14.2,14.8,14.4,14.7C14.6,14.6,14.8,14.6,14.9,14.6C15.1,14.6,16.1,14.8,16.1,14.8C16.8,14.6,17.1,14.3,17.3,14.3C17.5,14.3,17.4,14.6,17.4,14.6C18.1,14,18.2,13.6,18.4,13.4C18.6,13.2,18.8,13.1,19.1,13.1C19.3,13.1,19.5,13.1,19.6,13.2C19.7,13.3,19.1,13.8,19.1,13.8L17.9,14.5L16.4,15.5C15.9,15.5,15.6,15.5,15.5,15.3C15.3,15.1,15.7,15,15.5,15C15.3,15,15.1,15.1,15.1,15.1C15.1,15.1,14.2,15.8,13.8,15.4z"/><path stroke-opacity="0.4" stroke="#ffffff" transform="translate(2.16,1.3)" fill="none" id="shape53" d="M0,5.7C0,5.7,6.4,-0.7,17.9,.1"/><path stroke-opacity="0.4" stroke="#ffffff" transform="translate(0.56,3.66)" fill="none" id="shape54" d="M0,7.5C0,7.5,11.5,2.2,23.1,0"/><path stroke-opacity="0.4" stroke="#ffffff" transform="translate(0.11,6.57)" fill="none" id="shape55" d="M0,8.2C0,8.2,19.5,3.2,26.1,0"/><path stroke-opacity="0.4" stroke="#ffffff" transform="translate(0.9,10.18)" fill="none" id="shape56" d="M0,9.1C0,9.1,14.4,7.6,27,0"/><path stroke-opacity="0.4" stroke="#ffffff" transform="translate(2.68,14.02)" fill="none" id="shape57" d="M0,8.8C0,8.8,14.7,8.3,25.8,0"/><path stroke-opacity="0.4" stroke="#ffffff" transform="translate(5.94,17.34)" fill="none" id="shape58" d="M0,8.7C0,8.7,13.7,8.4,22.4,0"/><path stroke-opacity="0.4" stroke="#ffffff" transform="translate(9.62,21.82)" fill="none" id="shape59" d="M0,6.4C0,6.4,10.2,6.3,17,0"/><path stroke-opacity="0.4" stroke="#ffffff" transform="translate(15.5,0.2)" fill="none" id="shape60" d="M0,0C16.1,9,9,24.3,9,24.3"/><path stroke-opacity="0.4" stroke="#ffffff" transform="translate(12.72,0.29)" fill="none" id="shape61" d="M9.5,26.2C9.5,26.2,12.6,10.8,0,0"/><path stroke-opacity="0.4" stroke="#ffffff" transform="translate(10.44,0.76)" fill="none" id="shape62" d="M0,0C5.4,5.8,9.3,26.9,9.3,26.9"/><path stroke-opacity="0.4" stroke="#ffffff" transform="translate(8.9,1.2)" fill="none" id="shape63" d="M8.3,27.4C8.3,27.4,-0.6,13.4,0,0"/><path stroke-opacity="0.4" stroke="#ffffff" transform="translate(6.01,2.2)" fill="none" id="shape64" d="M1,0C-3.6,17.4,8.6,26.6,8.6,26.6"/><path stroke-opacity="0.4" stroke="#ffffff" transform="translate(2.39,3.81)" fill="none" id="shape65" d="M2.6,0C-5.9,16.4,9.2,24.7,9.2,24.7"/></g><text class="st3"><tspan x="2" y="140.5">云存对象存储服务</tspan></text></g><g transform="matrix(0.78,0.62,-0.62,0.78,265.8,1063)" id="shape66"><path stroke="#236ea1" fill="none" d="M0,0L201.5,0"/><path stroke="#236ea1" stroke-linecap="round" fill="#236ea1" stroke-width="1" d="M205.9,0L200.7,-3C201.2,-2.1,201.5,-1.1,201.5,0C201.5,1.1,201.2,2.1,200.7,3L205.9,0"/></g><g transform="matrix(0.02,1,-1,0.02,425,1063)" id="shape67"><path stroke="#236ea1" fill="none" d="M0,0L123.6,0"/><path stroke="#236ea1" stroke-linecap="round" fill="#236ea1" stroke-width="1" d="M128,0L122.8,-3C123.3,-2.1,123.6,-1.1,123.6,0C123.6,1.1,123.3,2.1,122.8,3L128,0"/></g><g transform="matrix(-0.8,0.59,-0.59,-0.8,600.5,1063)" id="shape68"><path stroke="#236ea1" fill="none" d="M0,0L211.2,0"/><path stroke="#236ea1" stroke-linecap="round" fill="#236ea1" stroke-width="1" d="M215.6,0L210.4,-3C210.9,-2.1,211.2,-1.1,211.2,0C211.2,1.1,210.9,2.1,210.4,3L215.6,0"/></g></g></svg>